<svg xmlns="http://www.w3.org/2000/svg" viewBox="0 0 64 64">
  <defs>
    <linearGradient id="ring" x1="0" y1="0" x2="0" y2="1">
      <stop offset="0" stop-color="#3b342c"/>
      <stop offset="1" stop-color="#120f0c"/>
    </linearGradient>
  </defs>
  <circle cx="32" cy="32" r="28" fill="url(#ring)" stroke="#6e624f" stroke-width="1.5"/>
  <circle cx="32" cy="32" r="21.5" fill="none" stroke="#2c2620" stroke-width="1.5" opacity="0.9"/>
  <path d="M15 22c3.5 0 5.5-2 7-4 1.5 2 3.5 4 7 4" fill="none" stroke="#fff" stroke-width="2.3" stroke-linecap="round" stroke-linejoin="round"/>
  <path d="M35 22c3.5 0 5.5-2 7-4 1.5 2 3.5 4 7 4" fill="none" stroke="#fff" stroke-width="2.3" stroke-linecap="round" stroke-linejoin="round"/>
  <path d="M15 42c3.5 0 5.5 2 7 4 1.5-2 3.5-4 7-4" fill="none" stroke="#fff" stroke-width="2.3" stroke-linecap="round" stroke-linejoin="round"/>
  <path d="M35 42c3.5 0 5.5 2 7 4 1.5-2 3.5-4 7-4" fill="none" stroke="#fff" stroke-width="2.3" stroke-linecap="round" stroke-linejoin="round"/>
  <path d="M22 15c0 3.5-2 5.5-4 7 2 1.5 4 3.5 4 7" fill="none" stroke="#fff" stroke-width="2.3" stroke-linecap="round" stroke-linejoin="round"/>
  <path d="M42 15c0 3.5 2 5.5 4 7-2 1.5-4 3.5-4 7" fill="none" stroke="#fff" stroke-width="2.3" stroke-linecap="round" stroke-linejoin="round"/>
  <path d="M22 35c0 3.5-2 5.5-4 7 2 1.5 4 3.5 4 7" fill="none" stroke="#fff" stroke-width="2.3" stroke-linecap="round" stroke-linejoin="round"/>
  <path d="M42 35c0 3.5 2 5.5 4 7-2 1.5-4 3.5-4 7" fill="none" stroke="#fff" stroke-width="2.3" stroke-linecap="round" stroke-linejoin="round"/>
  <circle cx="32" cy="32" r="4" fill="#fff"/>
</svg>
