<svg xmlns="http://www.w3.org/2000/svg" viewBox="0 0 64 64">
  <defs>
    <linearGradient id="g" x1="0" y1="0" x2="1" y2="1">
      <stop offset="0%" stop-color="#ffffff"/>
      <stop offset="100%" stop-color="#d7dde3"/>
    </linearGradient>
  </defs>
  <rect x="6" y="6" width="52" height="52" rx="6" fill="url(#g)" stroke="#b7c0c8" stroke-width="2"/>
  <path d="M15 34c0-6 4-11 10-11 8 0 11 18 17 18 3.8 0 6-3 6-7s-2.3-7-6-7c-5.7 0-8.8 18-18.5 18C18.6 45 15 40 15 34zm34 0c0 6-4 11-10 11-8 0-11-18-17-18-3.8 0-6 3-6 7s2.3 7 6 7c5.7 0 8.8-18 18.5-18C45.4 23 49 28 49 34z" fill="none" stroke="#557fa3" stroke-width="4.2" stroke-linecap="round" stroke-linejoin="round"/>
</svg>
